<svg width="18" height="16" viewBox="0 0 18 16" fill="none" xmlns="http://www.w3.org/2000/svg">
<path d="M17.1451 3.20001C16.3251 1.38001 14.6051 0.200012 12.7451 0.200012C10.8851 0.200012 9.68508 1.02001 8.98508 1.90001C8.28508 1.02001 7.08509 0.200012 5.22509 0.200012C3.36509 0.200012 1.64509 1.38001 0.825085 3.20001C-0.0149149 5.10001 0.345084 7.2 1.80508 8.84C5.30508 12.78 8.40509 15.56 8.44509 15.58C8.60509 15.72 8.78508 15.78 8.98508 15.78C9.18508 15.78 9.36508 15.72 9.52508 15.58C9.56508 15.56 12.6451 12.76 16.1651 8.84C17.6451 7.2 18.0051 5.10001 17.1451 3.20001ZM14.9851 7.78002C12.3851 10.68 10.0251 12.96 9.00508 13.9C7.98508 12.94 5.62509 10.68 3.02509 7.76002C1.98509 6.58002 1.72508 5.16001 2.30508 3.82001C2.84508 2.60001 4.02508 1.76002 5.24508 1.76002C7.62508 1.76002 8.16508 3.54002 8.22508 3.76002C8.30508 4.12002 8.62508 4.36002 8.98508 4.36002C9.34508 4.36002 9.66508 4.10002 9.76508 3.76002C9.82508 3.56002 10.3651 1.76002 12.7451 1.76002C13.9451 1.76002 15.1251 2.58001 15.6851 3.82001C16.2851 5.18001 16.0251 6.60002 14.9851 7.78002ZM14.7851 5.46002C14.8051 5.84002 14.5251 6.18001 14.1251 6.20001C14.1051 6.20001 14.0851 6.20001 14.0851 6.20001C13.7251 6.20001 13.4051 5.92 13.3851 5.54C13.3051 4.4 12.5651 4.22001 12.4251 4.20001C12.0451 4.14001 11.7851 3.80001 11.8251 3.42001C11.8851 3.04001 12.2451 2.78001 12.6251 2.82001C13.3251 2.92001 14.6651 3.60002 14.7851 5.46002ZM13.8251 6.62001C13.9851 6.78001 14.0651 6.98002 14.0651 7.18002C14.0651 7.40002 13.9851 7.6 13.8251 7.74C13.6851 7.9 13.4651 7.98002 13.2651 7.98002C13.0651 7.98002 12.8451 7.9 12.7051 7.74C12.5451 7.6 12.4651 7.38002 12.4651 7.18002C12.4651 6.98002 12.5451 6.76001 12.7051 6.62001C12.8451 6.48001 13.0651 6.38002 13.2651 6.38002C13.4651 6.40002 13.6651 6.48001 13.8251 6.62001Z" fill="#1D2D50"/>
</svg>
